<svg xmlns="http://www.w3.org/2000/svg" width="32.233" height="30.43" viewBox="0 0 32.233 30.43">
  <g id="Group_3195" data-name="Group 3195" transform="translate(1.001 1.072)">
    <path id="Path_22904" data-name="Path 22904" d="M23.946,168.577H6.284c-1.4,0-2.613-1.272-3.016-3.165L.029,150.184a1.191,1.191,0,0,1,.1-.785.6.6,0,0,1,.505-.359H29.6a.6.6,0,0,1,.505.357,1.2,1.2,0,0,1,.1.785l-3.239,15.229C26.559,167.306,25.348,168.577,23.946,168.577ZM1.478,150.816l3,14.087c.242,1.135.968,1.9,1.81,1.9h17.66c.841,0,1.568-.763,1.81-1.9l3-14.087Z" transform="translate(0 -140.219)" stroke="#000" stroke-width="2"/>
    <path id="Path_22905" data-name="Path 22905" d="M128.383,10.087a.628.628,0,0,1-.547-.942L132.873.329a.629.629,0,1,1,1.093.625L128.928,9.77A.629.629,0,0,1,128.383,10.087Z" transform="translate(-121.753 -0.007)" stroke="#000" stroke-width="2"/>
    <path id="Path_22906" data-name="Path 22906" d="M282.441,10.08a.633.633,0,0,1-.548-.317L276.856.947a.629.629,0,1,1,1.093-.625l5.038,8.816a.628.628,0,0,1-.545.942Z" transform="translate(-258.84)" stroke="#000" stroke-width="2"/>
  </g>
</svg>
