<svg xmlns="http://www.w3.org/2000/svg" width="410.008" height="314.992" viewBox="0 0 410.008 314.992">
  <path id="cross" d="M390.079,148.5H281.456a19.92,19.92,0,0,1-19.921-19.921V93.393H261.5V19.921A19.92,19.92,0,0,0,241.576,0H168.42A19.92,19.92,0,0,0,148.5,19.921V128.582A19.919,19.919,0,0,1,128.578,148.5H19.921A19.92,19.92,0,0,0,0,168.42V241.58A19.92,19.92,0,0,0,19.921,261.5h108.7A19.92,19.92,0,0,1,148.5,280.245v34.308c35.19.242,13.763.962,113-.224V281.418A19.92,19.92,0,0,1,281.426,261.5H390.088a19.92,19.92,0,0,0,19.921-19.921V168.42A19.938,19.938,0,0,0,390.079,148.5Z" fill="#fff"/>
</svg>
