<svg xmlns="http://www.w3.org/2000/svg" width="29.215" height="35.329" viewBox="0 0 29.215 35.329">
  <g id="Group_3410" data-name="Group 3410" transform="translate(-11400.5 2864.423)">
    <path id="Path_22857" data-name="Path 22857" d="M-7.173-19.6-12.846-8.545A2.207,2.207,0,0,0-10.88-5.333H13.914a2.207,2.207,0,0,0,1.965-3.211L10.218-19.62a.183.183,0,0,0-.009-.016L6.2-27.573s-.2.829-2.087,2.984a8.783,8.783,0,0,1-2.595,2.18,11.027,11.027,0,0,0,1.062-7.341c-.012-.083-.025-.165-.04-.247a9.451,9.451,0,0,0-1.3-3.45,7.163,7.163,0,0,0-.5-.682q-.167-.2-.334-.376a5.836,5.836,0,0,0-1.2-.967l-.118-.069a3.119,3.119,0,0,0-.493-.233.985.985,0,0,1,.074.108c.031.051.071.12.116.212.023.046.047.1.073.155.051.115.106.253.165.419q.043.124.088.268a11.345,11.345,0,0,1,.309,1.292c.028.151.055.311.08.479.064.421.122.9.167,1.435.019.215.032.431.041.647s.014.432.014.647a15.534,15.534,0,0,1-.242,2.772c-.07.379-.154.739-.25,1.072-.024.084-.049.165-.075.245C-1.2-24.9-1.705-24.132-2.3-24.013A.728.728,0,0,1-2.446-24c-.275,0-.429-.193-.525-.505-.008-.026-.016-.053-.023-.08a4.582,4.582,0,0,1-.108-.682c-.037-.367-.061-.784-.108-1.212a3.837,3.837,0,0,0-.472-1.5c-.05-.089-.1-.172-.156-.251-.027-.039-.054-.078-.081-.115a3.613,3.613,0,0,0-.337-.393c-.028-.028-.056-.056-.084-.082a3.1,3.1,0,0,0-.786-.558,3.991,3.991,0,0,1,.449,2.706A11.1,11.1,0,0,1-5.01-24.8,32.834,32.834,0,0,1-7.173-19.6" transform="translate(11413.59 -2823.761)" fill="#f12a28"/>
    <path id="Path_22858" data-name="Path 22858" d="M-1.739-10.05c.978,2.6.142,6.128.142,6.128A9.388,9.388,0,0,0,.638-9.4,11.092,11.092,0,0,0-1-14.545a5.793,5.793,0,0,1-.5-3.794s-.821.28-.985,2.357a5.132,5.132,0,0,0,.927,3.308s-.172.112-.772-.773a12.255,12.255,0,0,1-.716-1.963,4.382,4.382,0,0,0,.107,2.44c.447,1.275.66,1.476,1.2,2.921" transform="translate(11419.089 -2846.084)" fill="#f12a28"/>
  </g>
</svg>
