<svg xmlns="http://www.w3.org/2000/svg" width="29.547" height="29.547" viewBox="0 0 29.547 29.547">
  <path id="Path_23041" data-name="Path 23041" d="M-.144-.816a.529.529,0,0,0-.529.529v5.6a.53.53,0,0,0,.529.53H7.271A2.017,2.017,0,0,1,9.285,7.859v7.414a.529.529,0,0,0,.529.529h5.6a.529.529,0,0,0,.529-.529V7.859A2.017,2.017,0,0,1,17.96,5.844h7.414a.531.531,0,0,0,.53-.53v-5.6a.53.53,0,0,0-.53-.529H17.96A2.017,2.017,0,0,1,15.945-2.83v-7.414a.53.53,0,0,0-.529-.53h-5.6a.53.53,0,0,0-.529.53V-2.83A2.017,2.017,0,0,1,7.271-.816Zm15.56,18.1h-5.6A2.016,2.016,0,0,1,7.8,15.273V7.859a.531.531,0,0,0-.53-.53H-.144A2.016,2.016,0,0,1-2.158,5.314v-5.6A2.017,2.017,0,0,1-.144-2.3H7.271A.53.53,0,0,0,7.8-2.83v-7.414a2.016,2.016,0,0,1,2.013-2.014h5.6a2.017,2.017,0,0,1,2.014,2.014V-2.83a.529.529,0,0,0,.529.529h7.414A2.017,2.017,0,0,1,27.389-.286v5.6a2.016,2.016,0,0,1-2.014,2.014H17.96a.53.53,0,0,0-.529.53v7.414a2.017,2.017,0,0,1-2.014,2.014" transform="translate(2.158 12.259)" fill="#8bca53"/>
</svg>
