<svg xmlns="http://www.w3.org/2000/svg" width="777.279" height="896.337" viewBox="0 0 777.279 896.337">
  <g id="Group_3284" data-name="Group 3284" opacity="0.031">
    <g id="Subtraction_6" data-name="Subtraction 6" transform="translate(0 35.717)" fill="none">
      <path d="M763.279,860.62H14a14,14,0,0,1-14-14V807.739a14.149,14.149,0,0,0,2.094.156h.914a13.908,13.908,0,0,0,9.9-4.1,13.91,13.91,0,0,0,4.1-9.9V767.468a13.908,13.908,0,0,0-4.1-9.9,13.908,13.908,0,0,0-9.9-4.1H2.094A14.182,14.182,0,0,0,0,753.624V101.894a14.152,14.152,0,0,0,2.094.156h.914a13.908,13.908,0,0,0,9.9-4.1,13.908,13.908,0,0,0,4.1-9.9V61.624a13.908,13.908,0,0,0-4.1-9.9,13.908,13.908,0,0,0-9.9-4.1H2.094A14.156,14.156,0,0,0,0,47.78V14A14,14,0,0,1,14,0h749.28a14,14,0,0,1,14,14V47.63c-.123,0-.251-.005-.392-.005h-.914a14,14,0,0,0-14,14V88.051a14,14,0,0,0,14,14h.914c.13,0,.262,0,.392-.005V753.474c-.123,0-.251-.005-.392-.005h-.914a14,14,0,0,0-14,14v26.427a14,14,0,0,0,14,14h.914c.13,0,.262,0,.392-.005V846.62a14,14,0,0,1-14,14Z" stroke="none"/>
      <path d="M 763.2791748046875 856.6195678710938 C 765.9501953125 856.6195678710938 768.4613037109375 855.5794677734375 770.3499755859375 853.6907958984375 C 772.2386474609375 851.8021240234375 773.2787475585938 849.2911376953125 773.2787475585938 846.6201782226562 L 773.2786254882812 811.696044921875 C 769.4932250976562 811.1314697265625 766.0003051757812 809.3790893554688 763.2438354492188 806.6226196289062 C 759.8438720703125 803.2224731445312 757.9713745117188 798.7022705078125 757.9713745117188 793.8945922851562 L 757.9713745117188 767.4678344726562 C 757.9713745117188 762.659912109375 759.8439331054688 758.1398315429688 763.2439575195312 754.7400512695312 C 766.000244140625 751.9840087890625 769.4932250976562 750.2317504882812 773.2787475585938 749.6671752929688 L 773.2786254882812 105.8512802124023 C 769.4932250976562 105.2867279052734 766.0004272460938 103.5344924926758 763.2439575195312 100.7783737182617 C 759.8439331054688 97.37859344482422 757.9713745117188 92.85848236083984 757.9713745117188 88.05059051513672 L 757.9713745117188 61.62392425537109 C 757.9713745117188 56.81603622436523 759.8439331054688 52.29592514038086 763.2440795898438 48.89614868164062 C 766.00048828125 46.1400260925293 769.4933471679688 44.38777542114258 773.2787475585938 43.82321929931641 L 773.2787475585938 14.00037002563477 C 773.2787475585938 11.32925891876221 772.2386474609375 8.818037033081055 770.3497314453125 6.929036617279053 C 768.4613037109375 5.040258884429932 765.9503173828125 4.000036716461182 763.2791748046875 4.000036716461182 L 13.99951553344727 4.000036716461182 C 11.32851505279541 4.000036716461182 8.81751537322998 5.040258884429932 6.928959846496582 6.929147720336914 C 5.040182113647461 8.818037033081055 4.000071048736572 11.32925891876221 4.000071048736572 14.00037002563477 L 4.000071048736572 43.65103149414062 C 8.435385704040527 43.89014053344727 12.57141876220703 45.73127365112305 15.73640441894531 48.89625930786133 C 19.13607025146484 52.29592514038086 21.00829315185547 56.81603622436523 21.00829315185547 61.62392425537109 L 21.00829315185547 88.05059051513672 C 21.00829315185547 92.85848236083984 19.13607025146484 97.37859344482422 15.73640441894531 100.7782592773438 C 12.57141876220703 103.943244934082 8.435385704040527 105.7843780517578 4.000071048736572 106.0234909057617 L 4.000071048736572 749.4950561523438 C 8.435474395751953 749.734130859375 12.57152271270752 751.5752563476562 15.73640441894531 754.740234375 C 19.13607025146484 758.1399536132812 21.00829315185547 762.6600341796875 21.00829315185547 767.4678344726562 L 21.00829315185547 793.8945922851562 C 21.00829315185547 798.702392578125 19.13607025146484 803.2225952148438 15.73640441894531 806.6226196289062 C 12.57141876220703 809.7877807617188 8.435385704040527 811.629150390625 4.000071048736572 811.8682861328125 L 4.000071048736572 846.6201782226562 C 4.000071048736572 849.2911376953125 5.040182113647461 851.8021240234375 6.928848743438721 853.6907958984375 C 8.81751537322998 855.5794677734375 11.32851505279541 856.6195678710938 13.99951553344727 856.6195678710938 L 763.2791748046875 856.6195678710938 M 763.2791748046875 860.6195678710938 L 13.99951553344727 860.6195678710938 C 10.26007080078125 860.6195678710938 6.744515419006348 859.1633911132812 4.100404262542725 856.519287109375 C 1.456293225288391 853.8751220703125 7.096354238456115e-05 850.359619140625 7.096354238456115e-05 846.6201782226562 L 7.096354238456115e-05 807.7392578125 C 0.686404287815094 807.84228515625 1.390515446662903 807.8948974609375 2.094293117523193 807.8948974609375 L 3.008737564086914 807.8948974609375 C 6.74818229675293 807.8948974609375 10.26373767852783 806.4385986328125 12.90795993804932 803.7942504882812 C 15.55207061767578 801.1498413085938 17.00829315185547 797.634033203125 17.00829315185547 793.8945922851562 L 17.00829315185547 767.4678344726562 C 17.00829315185547 763.7283935546875 15.55207061767578 760.2128295898438 12.90795993804932 757.568603515625 C 10.26395988464355 754.9246215820312 6.748293399810791 753.4683837890625 3.008737564086914 753.4683837890625 L 2.094293117523193 753.4683837890625 C 1.393626570701599 753.4683837890625 0.6890709400177002 753.5206909179688 7.096354238456115e-05 753.6239013671875 L 7.096354238456115e-05 101.8944778442383 C 0.686404287815094 101.9974822998047 1.390515446662903 102.0501480102539 2.094293117523193 102.0501480102539 L 3.008737564086914 102.0501480102539 C 6.748293399810791 102.0501480102539 10.26384830474854 100.5939254760742 12.90795993804932 97.94981384277344 C 15.55207061767578 95.30570220947266 17.00829315185547 91.79014587402344 17.00829315185547 88.05059051513672 L 17.00829315185547 61.62392425537109 C 17.00829315185547 57.88436889648438 15.55207061767578 54.36881256103516 12.90795993804932 51.72470474243164 C 10.26384830474854 49.08059310913086 6.748293399810791 47.62437057495117 3.008737564086914 47.62437057495117 L 2.094293117523193 47.62437057495117 C 1.393182039260864 47.62437057495117 0.6885154247283936 47.67670440673828 7.096354238456115e-05 47.78003692626953 L 7.096354238456115e-05 14.00037002563477 C 7.096354238456115e-05 10.26081466674805 1.456293225288391 6.745147705078125 4.100404262542725 4.100814342498779 C 6.744404315948486 1.456369996070862 10.26007080078125 3.667534838314168e-05 13.99951553344727 3.667534838314168e-05 L 763.2791748046875 3.667534838314168e-05 C 767.0187377929688 3.667534838314168e-05 770.534423828125 1.456369996070862 773.1784057617188 4.100814342498779 C 775.822509765625 6.745147705078125 777.2787475585938 10.26081466674805 777.2787475585938 14.00037002563477 L 777.2787475585938 47.62981414794922 C 777.155517578125 47.62648010253906 777.0274047851562 47.62437057495117 776.8862915039062 47.62437057495117 L 775.9719848632812 47.62437057495117 C 772.232421875 47.62437057495117 768.7167358398438 49.08059310913086 766.072265625 51.72470474243164 C 763.4278564453125 54.36892700195312 761.9713745117188 57.88447952270508 761.9713745117188 61.62392425537109 L 761.9713745117188 88.05059051513672 C 761.9713745117188 91.7900390625 763.4278564453125 95.30559539794922 766.072265625 97.94981384277344 C 768.7167358398438 100.5939254760742 772.232421875 102.0501480102539 775.9719848632812 102.0501480102539 L 776.8862915039062 102.0501480102539 C 777.0161743164062 102.0501480102539 777.1480712890625 102.0483703613281 777.2786254882812 102.0447006225586 L 777.2787475585938 753.4738159179688 C 777.155517578125 753.470458984375 777.0274047851562 753.4683837890625 776.8862915039062 753.4683837890625 L 775.9719848632812 753.4683837890625 C 772.2322998046875 753.4683837890625 768.7164916992188 754.9246215820312 766.072265625 757.568603515625 C 763.4278564453125 760.2128295898438 761.9713745117188 763.7283935546875 761.9713745117188 767.4678344726562 L 761.9713745117188 793.8945922851562 C 761.9713745117188 797.6339111328125 763.4278564453125 801.1497192382812 766.072265625 803.7942504882812 C 768.7167358398438 806.4385986328125 772.232421875 807.8948974609375 775.9719848632812 807.8948974609375 L 776.8862915039062 807.8948974609375 C 777.0161743164062 807.8948974609375 777.1480712890625 807.8931274414062 777.2786254882812 807.8894653320312 L 777.2787475585938 846.6201782226562 C 777.2787475585938 850.359619140625 775.822509765625 853.8751220703125 773.1784057617188 856.519287109375 C 770.5343017578125 859.1633911132812 767.0187377929688 860.6195678710938 763.2791748046875 860.6195678710938 Z" stroke="none"/>
    </g>
    <g id="Group_3267" data-name="Group 3267" transform="translate(80.717)">
      <path id="Union_15" data-name="Union 15" d="M20.871,565.413a9.5,9.5,0,0,1-9.5-9.5V149.878a21.5,21.5,0,0,1,21.5-21.5H39.8v-1.241a21.5,21.5,0,0,1,21.32-21.5V98.529H38.377v2.136a13.5,13.5,0,0,1-13.5,13.5H13.5A13.5,13.5,0,0,1,0,100.665v-19.9a13.5,13.5,0,0,1,13.5-13.5H24.877a13.5,13.5,0,0,1,13.5,13.5v2.134H61.118V79.516L56.606,64.764l97.051-53.878L196.3,0V5.817l-27.689,7.753-29.993,16.01L110.948,46.742V64.764l16.5,8.52s29.6-4.756,53.037,0,43.682,25.044,43.682,25.044l-5.028,3.235s-15.06-14.717-56.67-18.224c-23.028-1.941-39.795,2.224-50.179,6.333v15.964h16.877a21.5,21.5,0,0,1,21.5,21.5v1.241h6.926a21.5,21.5,0,0,1,21.5,21.5V555.913a9.5,9.5,0,0,1-9.5,9.5Z" transform="translate(0 302.106)"/>
      <path id="Path_22960" data-name="Path 22960" d="M0,0H314.654V212.6H0Z" transform="translate(9.427)"/>
      <rect id="Rectangle_2144" data-name="Rectangle 2144" width="37.418" height="212.604" transform="matrix(0.985, 0.174, -0.174, 0.985, 443.173, 268.798)"/>
      <rect id="Rectangle_2145" data-name="Rectangle 2145" width="37.418" height="212.604" transform="matrix(0.985, -0.174, 0.174, 0.985, 535.518, 256.586)"/>
      <path id="Union_16" data-name="Union 16" d="M0,274.478V7A7,7,0,0,1,7,0H228.064a7,7,0,0,1,7,7V274.478Z" transform="translate(392.789 73.688)"/>
      <path id="Subtraction_8" data-name="Subtraction 8" d="M368.584,217.706H9a9.01,9.01,0,0,1-9-9V9A9.01,9.01,0,0,1,9,0H368.584a9.01,9.01,0,0,1,9,9V208.706A9.01,9.01,0,0,1,368.584,217.706ZM129.263,91.844V142.87H163.28v34.016h51.025V142.87h34.016V91.844H214.305V57.828H163.28V91.844Z" transform="translate(232.236 634.41)"/>
      <path id="Subtraction_7" data-name="Subtraction 7" d="M125.927,72.022H9a9.01,9.01,0,0,1-9-9V9A9.01,9.01,0,0,1,9,0H125.927a9.01,9.01,0,0,1,9,9V63.022A9.01,9.01,0,0,1,125.927,72.022ZM15.94,10.939a5.006,5.006,0,0,0-5,5v44.7a5.006,5.006,0,0,0,5,5H118.987a5.006,5.006,0,0,0,5-5V15.94a5.006,5.006,0,0,0-5-5Z" transform="translate(353.565 585.642)"/>
    </g>
    <path id="Union_14" data-name="Union 14" d="M704.144,713.5a9.354,9.354,0,1,1,9.354,9.354A9.355,9.355,0,0,1,704.144,713.5ZM0,713.5a9.355,9.355,0,1,1,9.355,9.354A9.355,9.355,0,0,1,0,713.5ZM704.144,9.355a9.354,9.354,0,1,1,9.354,9.354A9.355,9.355,0,0,1,704.144,9.355ZM0,9.355a9.355,9.355,0,1,1,9.355,9.354A9.355,9.355,0,0,1,0,9.355Z" transform="translate(27.214 103.751)"/>
  </g>
</svg>
