<svg id="linkedin" xmlns="http://www.w3.org/2000/svg" width="22" height="22" viewBox="0 0 22 22">
  <g id="Group_3471" data-name="Group 3471">
    <g id="Group_3470" data-name="Group 3470">
      <path id="Path_23068" data-name="Path 23068" d="M20.368,0H1.626A1.6,1.6,0,0,0,0,1.583V20.411A1.606,1.606,0,0,0,1.626,22H20.374A1.609,1.609,0,0,0,22,20.411V1.583A1.61,1.61,0,0,0,20.368,0ZM6.527,18.749H3.257V8.25H6.521v10.5ZM4.895,6.814A1.891,1.891,0,1,1,6.783,4.919,1.892,1.892,0,0,1,4.895,6.814ZM18.743,18.749H15.479v-5.1c0-1.216-.024-2.787-1.693-2.787-1.7,0-1.956,1.326-1.956,2.695v5.194H8.574V8.25H11.7V9.686h.043a3.429,3.429,0,0,1,3.086-1.693c3.3,0,3.911,2.176,3.911,5v5.757Z" fill="#fff"/>
    </g>
  </g>
</svg>
