<svg xmlns="http://www.w3.org/2000/svg" width="284.713" height="35.329" viewBox="0 0 284.713 35.329">
  <g id="Group_3345" data-name="Group 3345" transform="translate(-24 -8.577)">
    <g id="Group_3128" data-name="Group 3128" transform="translate(-131.056 94.739)">
      <g id="Group_3129" data-name="Group 3129" transform="translate(410.555 -86.162)">
        <g id="Group_3123" data-name="Group 3123" transform="translate(0 4.889)">
          <path id="Path_22857" data-name="Path 22857" d="M-7.173-19.6-12.846-8.545A2.207,2.207,0,0,0-10.88-5.333H13.914a2.207,2.207,0,0,0,1.965-3.211L10.218-19.62a.183.183,0,0,0-.009-.016L6.2-27.573s-.2.829-2.087,2.984a8.783,8.783,0,0,1-2.595,2.18,11.027,11.027,0,0,0,1.062-7.341c-.012-.083-.025-.165-.04-.247a9.451,9.451,0,0,0-1.3-3.45,7.163,7.163,0,0,0-.5-.682q-.167-.2-.334-.376a5.836,5.836,0,0,0-1.2-.967l-.118-.069a3.119,3.119,0,0,0-.493-.233.985.985,0,0,1,.074.108c.031.051.071.12.116.212.023.046.047.1.073.155.051.115.106.253.165.419q.043.124.088.268a11.345,11.345,0,0,1,.309,1.292c.028.151.055.311.08.479.064.421.122.9.167,1.435.019.215.032.431.041.647s.014.432.014.647a15.534,15.534,0,0,1-.242,2.772c-.07.379-.154.739-.25,1.072-.024.084-.049.165-.075.245C-1.2-24.9-1.705-24.132-2.3-24.013A.728.728,0,0,1-2.446-24c-.275,0-.429-.193-.525-.505-.008-.026-.016-.053-.023-.08a4.582,4.582,0,0,1-.108-.682c-.037-.367-.061-.784-.108-1.212a3.837,3.837,0,0,0-.472-1.5c-.05-.089-.1-.172-.156-.251-.027-.039-.054-.078-.081-.115a3.613,3.613,0,0,0-.337-.393c-.028-.028-.056-.056-.084-.082a3.1,3.1,0,0,0-.786-.558,3.991,3.991,0,0,1,.449,2.706A11.1,11.1,0,0,1-5.01-24.8,32.834,32.834,0,0,1-7.173-19.6" transform="translate(13.09 35.773)" fill="#f12a28"/>
        </g>
        <g id="Group_3124" data-name="Group 3124" transform="translate(15.415 0)">
          <path id="Path_22858" data-name="Path 22858" d="M-1.739-10.05c.978,2.6.142,6.128.142,6.128A9.388,9.388,0,0,0,.638-9.4,11.092,11.092,0,0,0-1-14.545a5.793,5.793,0,0,1-.5-3.794s-.821.28-.985,2.357a5.132,5.132,0,0,0,.927,3.308s-.172.112-.772-.773a12.255,12.255,0,0,1-.716-1.963,4.382,4.382,0,0,0,.107,2.44c.447,1.275.66,1.476,1.2,2.921" transform="translate(3.174 18.339)" fill="#f12a28"/>
        </g>
        <g id="Group_3125" data-name="Group 3125" transform="translate(7.813 20.042)">
          <path id="Path_22859" data-name="Path 22859" d="M-15.727-5.847h-3.59a.616.616,0,0,1-.616-.616v-3.59a.616.616,0,0,0-.616-.616h-2.712a.616.616,0,0,0-.616.616v3.59a.616.616,0,0,1-.616.616h-3.59a.615.615,0,0,0-.616.616v2.712a.615.615,0,0,0,.616.616h3.59a.616.616,0,0,1,.616.616V2.3a.616.616,0,0,0,.616.616h2.712a.616.616,0,0,0,.616-.616V-1.287a.616.616,0,0,1,.616-.616h3.59a.616.616,0,0,0,.616-.616V-5.231a.616.616,0,0,0-.616-.616" transform="translate(28.699 10.669)" fill="#fff"/>
        </g>
        <g id="Group_3126" data-name="Group 3126" transform="translate(7.454 19.683)">
          <path id="Path_22860" data-name="Path 22860" d="M-1.183-6.718a.256.256,0,0,0-.256.256V-3.75a.257.257,0,0,0,.256.257h3.59a.976.976,0,0,1,.975.975v3.59a.256.256,0,0,0,.256.256H6.352a.256.256,0,0,0,.256-.256v-3.59a.976.976,0,0,1,.975-.975h3.59a.257.257,0,0,0,.257-.257V-6.462a.257.257,0,0,0-.257-.256H7.583a.976.976,0,0,1-.975-.975v-3.59a.257.257,0,0,0-.256-.257H3.639a.257.257,0,0,0-.256.257v3.59a.976.976,0,0,1-.975.975ZM6.352,2.048H3.639a.976.976,0,0,1-.975-.975v-3.59a.257.257,0,0,0-.257-.257h-3.59a.976.976,0,0,1-.975-.975V-6.462a.976.976,0,0,1,.975-.975h3.59a.257.257,0,0,0,.257-.256v-3.59a.976.976,0,0,1,.975-.975H6.352a.976.976,0,0,1,.975.975v3.59a.256.256,0,0,0,.256.256h3.59a.976.976,0,0,1,.975.975V-3.75a.976.976,0,0,1-.975.975H7.583a.257.257,0,0,0-.256.257v3.59a.976.976,0,0,1-.975.975" transform="translate(2.158 12.259)" fill="#8bca53"/>
        </g>
      </g>
    </g>
    <g id="Group_3181" data-name="Group 3181" transform="translate(-122 3270)">
      <g id="Group_3168" data-name="Group 3168" transform="translate(153.867 -3237.155)">
        <path id="Path_22877" data-name="Path 22877" d="M0,0-1.856,4.61h-6.01l3.127-7.7c1.588-3.907,4.495-5.49,9.162-5.49H14.488L12.9-4.65H3.714A2.226,2.226,0,0,0,1.442-3.537H12.46L11.019,0Z" fill="#343233"/>
      </g>
      <g id="Group_3169" data-name="Group 3169" transform="translate(164.979 -3232.545)">
        <path id="Path_22878" data-name="Path 22878" d="M0,0,5.35-13.187h6.01L6.01,0Z" fill="#343233"/>
      </g>
      <g id="Group_3170" data-name="Group 3170" transform="translate(183.252 -3242.313)">
        <path id="Path_22879" data-name="Path 22879" d="M0,0-.855,2.11H3.933c.952,0,1.636-.156,2.028-.782A1.949,1.949,0,0,0,6.278.411C6.278.1,6.01,0,5.276,0ZM2.98,9.768.9,5.764h-3.25l-1.613,4H-9.9L-4.544-3.419H8.012c3.323,0,4.618.723,4.618,2.3a7.319,7.319,0,0,1-1.246,3.595A6.7,6.7,0,0,1,6.743,5.432L9.455,9.768Z" fill="#343233"/>
      </g>
      <g id="Group_3171" data-name="Group 3171" transform="translate(194.12 -3232.545)">
        <path id="Path_22880" data-name="Path 22880" d="M0,0,1.515-3.731H11.6a2.034,2.034,0,0,0,1.564-.489,1.17,1.17,0,0,0,.342-.723c0-.2-.2-.234-.708-.234H7.354c-2.957,0-4.349-.86-4.349-2.462A5.406,5.406,0,0,1,4.08-10.627c1.27-1.837,3.4-2.56,6.84-2.56H22.671L21.132-9.4H11.214a2.325,2.325,0,0,0-1.638.508,1,1,0,0,0-.317.666c0,.195.171.253.659.253H15.9c2.882,0,4.1.7,4.1,2.15a5.777,5.777,0,0,1-1.319,3.34C17.394-.762,15.415,0,12.679,0Z" fill="#343233"/>
      </g>
      <g id="Group_3172" data-name="Group 3172" transform="translate(219.866 -3232.545)">
        <path id="Path_22881" data-name="Path 22881" d="M0,0,3.762-9.319h-6.45L-1.1-13.187H17.834L16.247-9.319H9.8L6.034,0Z" fill="#343233"/>
      </g>
      <g id="Group_3173" data-name="Group 3173" transform="translate(252.33 -3242.313)">
        <path id="Path_22882" data-name="Path 22882" d="M0,0-.856,2.11H3.932c.953,0,1.637-.156,2.028-.782A1.94,1.94,0,0,0,6.278.411C6.278.1,6.009,0,5.276,0ZM2.98,9.768.9,5.764h-3.25l-1.613,4H-9.9L-4.544-3.419H8.012c3.323,0,4.618.723,4.618,2.3a7.319,7.319,0,0,1-1.246,3.595A6.7,6.7,0,0,1,6.742,5.432L9.455,9.768Z" fill="#343233"/>
      </g>
      <g id="Group_3174" data-name="Group 3174" transform="translate(269.5 -3232.545)">
        <path id="Path_22883" data-name="Path 22883" d="M0,0C-3.347,0-5.033-.977-5.033-3.243a9.281,9.281,0,0,1,.807-3.341c1.906-4.669,4.91-6.6,9.577-6.6H15.49L14-9.514H5.889c-1.857,0-2.859.293-3.519,1.192H13.413L12.069-5H.733a3.2,3.2,0,0,0-.049.43c0,.644.416.9,1.686.9h9.259L10.139,0Z" fill="#343233"/>
      </g>
      <g id="Group_3175" data-name="Group 3175" transform="translate(308.628 -3232.545)">
        <path id="Path_22884" data-name="Path 22884" d="M0,0C-3.3,0-4.912-1.016-4.912-3.224A11.815,11.815,0,0,1-2.469-9.592c1.833-2.462,4.349-3.6,7.818-3.6H15.61L14.023-9.26H6.644c-2.125,0-3.469.684-4.3,1.934a4.735,4.735,0,0,0-.9,2.383c0,.782.708,1.035,2.516,1.035h7.866L10.26,0Z" fill="#343233"/>
      </g>
      <g id="Group_3176" data-name="Group 3176" transform="translate(326.926 -3232.545)">
        <path id="Path_22885" data-name="Path 22885" d="M0,0,3.762-9.319H-2.687L-1.1-13.187H17.835L16.247-9.319H9.8L6.035,0Z" fill="#343233"/>
      </g>
      <g id="Group_3177" data-name="Group 3177" transform="translate(341.166 -3232.545)">
        <path id="Path_22886" data-name="Path 22886" d="M0,0,5.351-13.187H11.36L6.009,0Z" fill="#343233"/>
      </g>
      <g id="Group_3178" data-name="Group 3178" transform="translate(361.661 -3236.296)">
        <path id="Path_22887" data-name="Path 22887" d="M0,0C2.443,0,3.812-.782,4.691-2.109a5.217,5.217,0,0,0,1-2.58c0-.781-.781-.977-2.908-.977H1.173a4.958,4.958,0,0,0-4.128,1.6A5.6,5.6,0,0,0-4.3-.938c0,.762.733.938,2.688.938ZM-4.446,3.751c-4.178,0-6.108-1.074-6.108-3.458a10.972,10.972,0,0,1,2.981-6.76C-5.667-8.5-2.955-9.436.9-9.436H5.839c4.179,0,6.084,1.075,6.084,3.458A10.626,10.626,0,0,1,9.846-.351c-1.93,2.813-4.837,4.1-9.357,4.1Z" fill="#343233"/>
      </g>
      <g id="Group_3179" data-name="Group 3179" transform="translate(384.476 -3232.545)">
        <path id="Path_22888" data-name="Path 22888" d="M0,0,3.372-8.3a1.6,1.6,0,0,0,.171-.606c0-.293-.245-.351-.9-.351H-2.492L-6.254,0h-6.01l5.351-13.187H5.619c3.078,0,4.446.84,4.446,2.384A4.151,4.151,0,0,1,9.7-9.221L5.962,0Z" fill="#343233"/>
      </g>
      <g id="Group_3180" data-name="Group 3180" transform="translate(291.03 -3240.144)">
        <path id="Path_22889" data-name="Path 22889" d="M0,0,.675-1.661H5.8c.659,0,.9.058.9.352A1.6,1.6,0,0,1,6.538-.7L6.252,0ZM8.785-5.588H-3.747L-9.1,7.6h6.01l1.776-4.37H4.94L3.166,7.6H9.127l3.738-9.221A4.157,4.157,0,0,0,13.232-3.2c0-1.543-1.368-2.384-4.447-2.384" fill="#343233"/>
      </g>
    </g>
  </g>
</svg>
