<svg xmlns="http://www.w3.org/2000/svg" width="29.83" height="29.83" viewBox="0 0 29.83 29.83">
  <g id="Search" transform="translate(-712 -442)">
    <rect id="Rectangle_693" data-name="Rectangle 693" width="29.83" height="29.83" transform="translate(712 442)" fill="none"/>
    <path id="Path_208" data-name="Path 208" d="M29.644,27.034l-6.152-6.152a12.765,12.765,0,0,0,2.61-7.83A12.97,12.97,0,0,0,13.051,0,12.97,12.97,0,0,0,0,13.051,12.97,12.97,0,0,0,13.051,26.1a12.765,12.765,0,0,0,7.83-2.61l6.152,6.152ZM3.729,13.051a9.231,9.231,0,0,1,9.322-9.322,9.231,9.231,0,0,1,9.322,9.322,9.231,9.231,0,0,1-9.322,9.322A9.231,9.231,0,0,1,3.729,13.051Z" transform="translate(712 442)" fill="#fff"/>
  </g>
</svg>
