<svg xmlns="http://www.w3.org/2000/svg" width="29.288" height="35.419" viewBox="0 0 29.288 35.419">
  <g id="Group_3379" data-name="Group 3379" transform="translate(-3797.212 -4924.111)">
    <g id="Group_3377" data-name="Group 3377" transform="translate(2439 2572)">
      <path id="Path_22858" data-name="Path 22858" d="M1.438,8.311c.98,2.607.143,6.144.143,6.144a9.412,9.412,0,0,0,2.241-5.5A11.121,11.121,0,0,0,2.176,3.8a5.808,5.808,0,0,1-.5-3.8S.851.281.687,2.363A5.145,5.145,0,0,0,1.616,5.68S1.443,5.792.842,4.9A12.287,12.287,0,0,1,.124,2.936,4.393,4.393,0,0,0,.232,5.382C.68,6.66.894,6.862,1.438,8.311" transform="translate(1373.666 2352.111)" fill="#b5b5b5"/>
      <path id="Subtraction_15" data-name="Subtraction 15" d="M27.074,30.518H2.215A2.212,2.212,0,0,1,.245,27.3L5.931,16.211A33.16,33.16,0,0,0,8.1,11.005a11.257,11.257,0,0,0,.333-1.873A4.05,4.05,0,0,0,7.983,6.42h0l.01,0a3.307,3.307,0,0,1,.777.556l.085.082a3.8,3.8,0,0,1,.338.393l.018.025.064.09c.056.083.109.167.156.252A3.84,3.84,0,0,1,9.9,9.32c.026.242.046.479.064.709.014.178.028.346.044.506a4.555,4.555,0,0,0,.109.684c.007.028.014.055.023.081.106.344.274.505.527.507a.748.748,0,0,0,.148-.016c.563-.113,1.083-.828,1.462-2.013.025-.08.05-.162.075-.246.1-.332.18-.694.25-1.075a15.683,15.683,0,0,0,.243-2.779c0-.215,0-.433-.014-.649s-.023-.434-.04-.649c-.043-.5-.1-.987-.167-1.439-.026-.169-.053-.331-.081-.48a11.3,11.3,0,0,0-.31-1.3c-.028-.091-.058-.182-.088-.269-.056-.159-.111-.3-.165-.42-.026-.058-.05-.109-.073-.155-.039-.078-.078-.15-.117-.213A1.081,1.081,0,0,0,11.721,0h0l.015,0a3.833,3.833,0,0,1,.478.228l.032.019.085.05a5.831,5.831,0,0,1,1.2.969c.112.117.225.244.336.377a7.278,7.278,0,0,1,.5.684,9.524,9.524,0,0,1,1.3,3.46c.015.082.029.165.04.247a12.553,12.553,0,0,1-.256,5.4,7.944,7.944,0,0,1-.808,1.964,8.95,8.95,0,0,0,2.6-2.186,9.51,9.51,0,0,0,2.093-2.992l4.019,7.958a.093.093,0,0,1,.01.016l5.676,11.1a2.212,2.212,0,0,1-1.97,3.219Zm-16.3-9.974a.612.612,0,0,0-.611.611v1.7a.611.611,0,0,0,.611.61h2.246a.161.161,0,0,1,.161.161v2.246a.611.611,0,0,0,.61.611h1.7a.612.612,0,0,0,.611-.611V23.624a.161.161,0,0,1,.16-.161h2.247a.611.611,0,0,0,.61-.61v-1.7a.611.611,0,0,0-.61-.611H16.264a.16.16,0,0,1-.16-.16V18.137a.611.611,0,0,0-.611-.61H13.8a.611.611,0,0,0-.61.61v2.247a.161.161,0,0,1-.161.16Z" transform="translate(1358.212 2357.013)" fill="#b5b5b5"/>
    </g>
  </g>
</svg>
