<svg xmlns="http://www.w3.org/2000/svg" width="24.889" height="36.679" viewBox="0 0 24.889 36.679">
  <g id="Group_3418" data-name="Group 3418" transform="translate(-3880 2672.097)">
    <g id="mouse-peripheral" transform="translate(3880 -2672.097)">
      <g id="Group_3417" data-name="Group 3417" transform="translate(0 0)">
        <path id="Path_23042" data-name="Path 23042" d="M195.4,140.938a12.108,12.108,0,0,0-7.993-4.029s-2.364-.014-2.4,0a12.512,12.512,0,0,0-11.264,12.369v11.849a12.112,12.112,0,0,0,3.639,8.837,11.891,11.891,0,0,0,8.773,3.617h.065a12.477,12.477,0,0,0,8.773-3.639,12.66,12.66,0,0,0,3.639-8.816V149.277A12.034,12.034,0,0,0,195.4,140.938Zm.823,20.188A10.147,10.147,0,0,1,186.211,171.2a9.865,9.865,0,0,1-7.105-2.968,9.72,9.72,0,0,1-2.968-7.1V149.277a9.7,9.7,0,0,1,2.751-6.91,9.106,9.106,0,0,1,6.737-3.119h1.321a8.956,8.956,0,0,1,6.585,3.206,9.663,9.663,0,0,1,2.686,6.823v11.849Z" transform="translate(-173.734 -136.903)" fill="#fff"/>
        <path id="Path_23043" data-name="Path 23043" d="M342.136,239.146h-.715a2.792,2.792,0,0,0-2.036.845,2.757,2.757,0,0,0-.845,2.036v5.026a2.887,2.887,0,0,0,2.881,2.838h.715a2.848,2.848,0,0,0,2.837-2.838v-5.025a2.793,2.793,0,0,0-.845-2.036A2.7,2.7,0,0,0,342.136,239.146Zm.433,7.906a.434.434,0,0,1-.433.433h-.715a.987.987,0,0,1-.347-.13.427.427,0,0,1-.13-.3v-5.025a.445.445,0,0,1,.477-.433h.715a.421.421,0,0,1,.433.433Z" transform="translate(-329.313 -233.421)" fill="#fff"/>
      </g>
      <line id="Line_125" data-name="Line 125" y2="14.277" transform="translate(12.458 15.711)" fill="none" stroke="#fff" stroke-linecap="round" stroke-width="2"/>
      <path id="Path_23044" data-name="Path 23044" d="M321.717,580l4.227,6.908L330.068,580" transform="translate(-313.487 -555.917)" fill="none" stroke="#fff" stroke-linecap="round" stroke-width="2"/>
    </g>
  </g>
</svg>
