<svg xmlns="http://www.w3.org/2000/svg" width="20.283" height="18.173" viewBox="0 0 20.283 18.173">
  <path id="Twitter_3_" d="M128.08,24.947a7.239,7.239,0,0,1-2.65,1.1A4.054,4.054,0,0,0,122.4,24.6a4.388,4.388,0,0,0-4.165,4.572,6.809,6.809,0,0,0,.108,1.042,11.5,11.5,0,0,1-8.546-4.746,4.689,4.689,0,0,0-.541,2.315A4.931,4.931,0,0,0,111.1,31.6a3.66,3.66,0,0,1-1.893-.579v.058a4.426,4.426,0,0,0,3.353,4.456,3.278,3.278,0,0,1-1.082.174,3.113,3.113,0,0,1-.757-.058,4.3,4.3,0,0,0,3.894,3.183,7.845,7.845,0,0,1-5.138,1.968,5.5,5.5,0,0,1-.974-.058,11.108,11.108,0,0,0,6.382,2.026c7.626,0,11.845-6.945,11.845-12.964V29.23a8.414,8.414,0,0,0,2.055-2.373,7.048,7.048,0,0,1-2.38.695A5.717,5.717,0,0,0,128.08,24.947Z" transform="translate(-108.5 -24.6)" fill="#f12a28"/>
</svg>
